Coordinates
version=1
nRows=18
nColumns=19
inDegrees=yes

Units are S.I. units (second, meters, Newtons, ...)
If the header above contains a line with 'inDegrees', this indicates whether rotational values are in degrees (yes) or radians (no).

endheader
time	pelvis_tilt	pelvis_list	pelvis_rotation	pelvis_tx	pelvis_ty	pelvis_tz	hip_flexion_r	hip_adduction_r	hip_rotation_r	knee_angle_r	knee_angle_r_beta	ankle_angle_r	hip_flexion_l	hip_adduction_l	hip_rotation_l	knee_angle_l	knee_angle_l_beta	ankle_angle_l
     16.74000000	     -5.77001723	      9.83814990	     -0.30878227	      2.39080017	      1.02337774	      1.02756877	    -15.25902995	    -14.53658357	     -8.94988654	     73.18249395	      1.27727547	    -17.96786057	     31.26855095	     12.81061567	    -10.74709336	     10.49934937	      0.18324822	      7.17439233
     16.74666667	     -5.17067018	     10.37889244	     -0.11978604	      2.38965121	      1.01944412	      1.02796252	    -14.39501002	    -14.68319538	     -7.61793368	     77.36748841	      1.35031741	    -17.75413266	     30.98887276	     13.22573550	    -11.83287281	     13.13827333	      0.22930613	      6.76739294
     16.75333333	     -5.43428017	     10.55050915	      0.16748602	      2.38806115	      1.01424671	      1.02842271	    -12.34578481	    -14.31038052	     -6.01266602	     81.67141345	      1.42543507	    -17.54749972	     31.79874584	     13.15562189	    -12.74767351	     16.45181038	      0.28713826	      6.35132035
     16.76000000	     -5.49077065	     10.76438050	      0.58643704	      2.38633483	      1.00892418	      1.02897867	    -10.54706481	    -14.03483898	     -4.84996338	     85.81791357	      1.49780515	    -17.26544605	     32.39305691	     13.15411610	    -13.45673518	     20.03153129	      0.34961618	      6.00876148
     16.76666667	     -5.62332513	     10.90836477	      1.08924269	      2.38442648	      1.00329162	      1.02958300	     -8.60331652	    -13.72658339	     -3.87807022	     89.85157333	      1.56820579	    -16.87968379	     33.06377453	     13.08864952	    -13.95732694	     23.81441757	      0.41564000	      5.78177993
     16.77333333	     -5.80306953	     10.97960279	      1.63310979	      2.38227715	      0.99742745	      1.03024737	     -6.51237108	    -13.40732363	     -3.04561915	     93.77049663	      1.63660391	    -16.40402171	     33.75339254	     12.97329754	    -14.21585062	     27.70176589	      0.48348702	      5.89819613
     16.78000000	     -5.31402680	     11.39371615	      2.26956393	      2.38020468	      0.99236465	      1.03070664	     -5.25152088	    -13.70874832	     -2.76583060	     97.38613439	      1.69970869	    -15.73566121	     33.49322811	     13.34484051	    -14.26209709	     31.24958729	      0.54540819	      6.33175929
     16.78666667	     -6.32955893	     10.92421449	      2.82712768	      2.37733383	      0.98570415	      1.03148128	     -1.81732127	    -12.86298076	     -1.74109374	    101.15082899	      1.76541501	    -15.17525066	     35.00276668	     12.73388743	    -14.00355507	     35.26316217	      0.61545828	      7.32071817
     16.79333333	     -6.68103682	     10.82489688	      3.47720302	      2.37448498	      0.98006925	      1.03194330	      0.81646493	    -12.68320747	     -1.22345547	    104.57771853	      1.82522551	    -14.39729316	     35.49432583	     12.70340093	    -13.49994564	     38.73861733	      0.67611642	      8.67131581
     16.80000000	     -6.98832339	     10.67454161	      4.07025058	      2.37146575	      0.97492089	      1.03236073	      3.56193290	    -12.54324157	     -0.69748727	    107.76533489	      1.88085991	    -13.60755983	     35.73142146	     12.68377160	    -12.85504383	     41.89504368	      0.73120645	     10.41351500
     16.80666667	     -7.29346161	     10.49270652	      4.62402346	      2.36829505	      0.97029889	      1.03268555	      6.46224871	    -12.45441946	     -0.15910489	    110.69008484	      1.93190643	    -12.80792790	     35.72293273	     12.70700234	    -12.06432478	     44.65453820	      0.77936872	     12.46886280
     16.81333333	     -7.54023880	     10.27495399	      5.13466741	      2.36508583	      0.96636568	      1.03290000	      9.43633650	    -12.39906244	      0.37368971	    113.29596307	      1.97738758	    -12.02129972	     35.38231519	     12.75184138	    -11.16072813	     46.97607595	      0.81988719	     14.74050452
     16.82000000	     -7.70549760	     10.02685230	      5.57377800	      2.36193977	      0.96322725	      1.03302710	     12.44527574	    -12.35698569	      0.91370407	    115.54352998	      2.01661503	    -11.22790669	     34.66450399	     12.79012802	    -10.18712669	     48.81943315	      0.85205985	     17.10689778
     16.82666667	     -7.25015019	      9.98304840	      5.92184581	      2.35925444	      0.96168832	      1.03303003	     14.74803392	    -12.58879464	      1.35948483	    117.28256030	      2.04696683	    -10.43530064	     32.87454797	     13.01915339	     -9.20389050	     49.99829703	      0.87263490	     19.52716256
     16.83333333	     -6.92404848	      9.75343160	      6.20992348	      2.35681416	      0.96080137	      1.03295341	     17.28133293	    -12.59949530	      1.78820849	    118.61067608	      2.07014683	     -9.67299412	     30.96386851	     13.06316263	     -8.11127214	     50.74198105	      0.88561464	     21.73397636
     16.84000000	     -6.70409354	      9.32143273	      6.47058445	      2.35508901	      0.96075418	      1.03272833	     19.88388184	    -12.37855482	      2.07131708	    119.39738007	      2.08387740	     -8.91477412	     28.85034959	     12.88574694	     -6.95082290	     50.98380911	      0.88983533	     23.80351020
     16.84666667	     -6.51102872	      8.45864856	      6.78022194	      2.35386765	      0.96145792	      1.03230242	     22.43358953	    -11.72147120	      1.94764165	    119.65062570	      2.08829737	     -8.16874427	     26.59344907	     12.23348553	     -5.66776336	     50.95812226	      0.88938701	     25.65042186
     16.85333333	     -6.22587090	      7.85456593	      6.84419569	      2.35275352	      0.96271410	      1.03201247	     24.91659527	    -11.30602982	      2.01419531	    119.65190485	      2.08831970	     -7.35405237	     24.01442939	     11.72854465	     -4.62017507	     50.41294287	      0.87987184	     27.11654534
